<?xml version="1.0" standalone="no"?>
<!DOCTYPE svg PUBLIC "-//W3C//DTD SVG 20010904//EN"
 "http://www.w3.org/TR/2001/REC-SVG-20010904/DTD/svg10.dtd">
<svg version="1.0" xmlns="http://www.w3.org/2000/svg"
 width="320.000000pt" height="320.000000pt" viewBox="0 0 320.000000 320.000000"
 preserveAspectRatio="xMidYMid meet">
<metadata>
Created by potrace 1.11, written by Peter Selinger 2001-2013
</metadata>
<g transform="translate(0.000000,320.000000) scale(0.100000,-0.100000)"
fill="#000000" stroke="none">
<path d="M1458 3195 c-1 -1 -31 -5 -66 -8 -35 -4 -66 -8 -70 -11 -4 -2 -27 -7
-50 -11 -102 -15 -320 -94 -428 -155 l-52 -29 -12 28 c-15 38 -46 66 -92 86
-69 28 -138 14 -193 -40 -22 -23 -30 -26 -44 -17 -81 60 -117 72 -199 68 -141
-6 -249 -120 -249 -261 0 -56 17 -113 47 -155 14 -20 17 -31 9 -36 -6 -3 -22
-29 -34 -57 -43 -93 -22 -219 49 -290 14 -14 22 -27 20 -30 -3 -3 2 -21 11
-40 14 -29 14 -40 4 -58 -18 -34 -66 -207 -85 -307 -26 -131 -25 -409 1 -552
41 -222 144 -471 267 -640 l61 -85 2 -80 c2 -93 8 -117 42 -167 39 -58 97 -80
212 -79 l96 0 85 -49 c47 -27 116 -62 152 -79 79 -35 267 -97 322 -105 21 -4
41 -8 45 -10 29 -18 396 -27 506 -13 200 27 420 105 608 215 66 39 69 40 165
40 134 0 179 21 232 106 18 30 22 53 24 129 2 91 3 94 42 147 131 177 250 444
279 620 3 19 11 62 17 95 22 110 16 416 -11 536 -5 24 -12 56 -14 70 -7 35
-55 186 -67 209 -7 13 -5 27 5 47 8 15 15 38 15 51 0 12 6 25 14 28 7 3 26 29
42 57 24 44 29 63 29 122 -1 69 -28 153 -55 170 -7 4 -3 17 10 35 91 128 44
320 -96 390 -90 44 -211 32 -284 -29 l-34 -28 -30 30 c-61 59 -137 72 -205 37
-40 -20 -76 -57 -86 -90 -5 -16 -14 -14 -88 25 -128 66 -317 130 -447 150 -25
4 -54 9 -65 12 -22 5 -351 13 -357 8z"/>
</g>
</svg>
